<?xml version="1.0" standalone="no"?>
<!DOCTYPE svg PUBLIC "-//W3C//DTD SVG 1.1//EN" "http://www.w3.org/Graphics/SVG/1.1/DTD/svg11.dtd" >
<svg xmlns="http://www.w3.org/2000/svg" xmlns:xlink="http://www.w3.org/1999/xlink" version="1.1">
<metadata></metadata>
<defs>
<font id="abchanel_pb_semibold_sSBd" horiz-adv-x="1941" >
<font-face units-per-em="2048" ascent="1536" descent="-512" />
<missing-glyph horiz-adv-x="745" />
<glyph horiz-adv-x="0" />
<glyph horiz-adv-x="0" />
<glyph horiz-adv-x="682" />
<glyph unicode=" "  horiz-adv-x="745" />
<glyph unicode="&#x09;" horiz-adv-x="745" />
<glyph unicode="&#xa0;" horiz-adv-x="745" />
<glyph unicode="!" horiz-adv-x="817" d="M250 0v309h317v-309h-317zM264 1434h291l-18 -977h-254z" />
<glyph unicode="&#x22;" horiz-adv-x="1148" d="M225 1434h269l-11 -471h-250zM655 1434h269l-11 -471h-249z" />
<glyph unicode="#" horiz-adv-x="1597" d="M160 375v221h225l59 266h-174v221h224l79 351h230l-80 -351h319l80 351h230l-80 -351h190v-221h-241l-60 -266h191v-221h-242l-84 -375h-227l84 375h-320l-84 -375h-229l84 375h-174zM614 596h320l59 266h-319z" />
<glyph unicode="$" horiz-adv-x="1691" d="M197 260l200 160q76 -82 167.5 -122.5t209.5 -49.5v379l-8 2q-96 11 -170 28t-140.5 46.5t-110 70.5t-68.5 102t-25 138q0 163 140.5 274t381.5 131v140h182v-140q157 -12 292 -68t216 -147l-188 -162q-108 120 -320 142v-344l43 -4q89 -12 161 -31t134.5 -51t104 -75 t65 -103.5t23.5 -135.5q0 -94 -41.5 -171.5t-115 -129.5t-168.5 -83.5t-206 -41.5v-147h-182v145q-381 20 -577 248zM516 1026q0 -72 64 -107.5t194 -56.5v324q-137 -11 -197.5 -56.5t-60.5 -103.5zM956 248q133 12 201 61t68 123q0 79 -65.5 116t-203.5 56v-356z" />
<glyph unicode="%" horiz-adv-x="1759" d="M139 1137q0 135 95.5 228t236.5 93q138 0 233 -93t95 -228t-95 -230.5t-231 -95.5q-144 0 -239 94t-95 232zM158 -10l1145 1454h299l-1143 -1454h-301zM334 1137q0 -56 40 -96t97 -40q55 0 95 40t40 96q0 55 -39.5 94t-95.5 39q-57 0 -97 -39t-40 -94zM961 297 q0 137 96 230.5t235 93.5t233.5 -93.5t94.5 -230.5q0 -134 -94.5 -229t-231.5 -95q-142 0 -237.5 94t-95.5 230zM1159 297q0 -54 39 -93.5t94 -39.5q56 0 95.5 39t39.5 94q0 57 -39.5 96t-95.5 39t-94.5 -39t-38.5 -96z" />
<glyph unicode="&#x26;" horiz-adv-x="1726" d="M154 383q0 139 90 240.5t276 187.5q-160 167 -160 315q0 107 61 184.5t156.5 113.5t213.5 36q204 0 319 -90t115 -231q0 -122 -82.5 -209.5t-237.5 -163.5l305 -303q76 108 111 237h254q-40 -218 -197 -405l299 -295h-336l-137 133q-227 -160 -487 -160q-125 0 -224.5 25 t-161.5 65.5t-103 95t-57.5 110t-16.5 114.5zM426 406q0 -86 73 -147.5t228 -61.5q170 0 315 98l-368 364q-51 -25 -84 -42.5t-67.5 -42t-53.5 -47.5t-31 -54t-12 -67zM608 1139q0 -52 37.5 -102.5t104.5 -114.5l6 -9q111 48 165 96.5t54 116.5q0 62 -55.5 102t-126.5 40 q-82 0 -133.5 -36t-51.5 -93z" />
<glyph unicode="'" horiz-adv-x="718" d="M225 1434h269l-11 -471h-250z" />
<glyph unicode="(" horiz-adv-x="761" d="M186 711q0 476 224 893h219q-87 -229 -123.5 -441.5t-36.5 -451.5q0 -233 35 -442.5t123 -430.5h-221q-107 186 -163.5 414t-56.5 459z" />
<glyph unicode=")" horiz-adv-x="761" d="M133 1604h219q223 -415 223 -893q0 -232 -56 -459.5t-163 -413.5h-221q88 221 123 430.5t35 442.5q0 242 -36 453.5t-124 439.5z" />
<glyph unicode="*" horiz-adv-x="978" d="M121 1100l59 180l221 -78l-2 232h189l-8 -232l217 78l63 -180l-227 -66l143 -188l-155 -119l-134 205l-139 -207l-153 121l153 188z" />
<glyph unicode="+" horiz-adv-x="1486" d="M176 377v239h440v367h254v-367h441v-239h-441v-377h-254v377h-440z" />
<glyph unicode="," horiz-adv-x="669" d="M53 -389l152 698h325l-249 -698h-228z" />
<glyph unicode="-" horiz-adv-x="1148" d="M176 594v264h797v-264h-797z" />
<glyph unicode="." horiz-adv-x="669" d="M176 0v311h318v-311h-318z" />
<glyph unicode="/" horiz-adv-x="1490" d="M25 -102l1142 1634h299l-1142 -1634h-299z" />
<glyph unicode="0" horiz-adv-x="1724" d="M233 717q0 348 168 545.5t461 197.5q295 0 461 -197.5t166 -545.5q0 -347 -167.5 -545.5t-459.5 -198.5q-295 0 -462 196.5t-167 547.5zM492 717q0 -232 97 -363t273 -131q178 0 273.5 131t95.5 363t-98 362.5t-271 130.5q-178 0 -274 -130t-96 -363z" />
<glyph unicode="1" horiz-adv-x="976" d="M160 991v236q134 21 198.5 71.5t87.5 135.5h244v-1434h-266v1061q-88 -63 -264 -70z" />
<glyph unicode="2" horiz-adv-x="1507" d="M209 0v229q119 187 448 402q173 112 227 158q98 84 114 180q3 21 3 45q0 91 -61 148t-176 57q-121 0 -187 -62.5t-85 -169.5l-234 55q35 203 167 310.5t343 107.5q225 0 357 -119.5t132 -308.5q0 -103 -36 -189.5t-92 -146t-135 -119t-154.5 -104.5t-162.5 -107.5 t-147 -123.5h748v-242h-1069z" />
<glyph unicode="3" horiz-adv-x="1558" d="M217 324l236 100q39 -115 121.5 -164t220.5 -49t217.5 58t79.5 159q0 74 -48 119q-40 39 -118 52t-213 13h-133v232h170q47 0 84 3.5t77.5 15.5t67 32.5t44 56t17.5 84.5q0 73 -64.5 128t-189.5 55q-131 0 -196.5 -55t-87.5 -173l-242 60q11 64 33.5 120t64 110.5 t98.5 93t142.5 62t189.5 23.5q228 0 366 -109.5t138 -293.5q0 -92 -35 -171.5t-106 -131.5q97 -49 148 -135t51 -195q0 -210 -149 -331.5t-421 -121.5q-442 0 -563 353z" />
<glyph unicode="4" horiz-adv-x="1550" d="M150 262v217l786 955h272v-936h168v-236h-168v-262h-254v262h-804zM444 498h510v628z" />
<glyph unicode="5" horiz-adv-x="1581" d="M217 299l236 104q89 -196 340 -196q143 0 229 71.5t86 194.5q0 118 -82.5 191t-224.5 73q-177 0 -293 -125l-232 72l66 750h918v-236h-699l-26 -303q120 76 282 76q248 0 393.5 -131t145.5 -359q0 -233 -153.5 -370.5t-416.5 -137.5q-198 0 -348.5 83.5t-220.5 242.5z " />
<glyph unicode="6" horiz-adv-x="1581" d="M233 700q0 366 160 563t457 197q200 0 328 -84t190 -217l-217 -104q-89 174 -303 174q-163 0 -254.5 -95.5t-108.5 -299.5q134 131 355 131q244 0 389 -130t145 -346q0 -232 -153.5 -374t-403.5 -142q-153 0 -267.5 54.5t-182.5 154t-101 229t-33 289.5zM500 479 q0 -119 87.5 -195.5t227.5 -76.5q146 0 234 73t88 199q0 120 -86.5 187t-235.5 67q-144 0 -229.5 -69t-85.5 -185z" />
<glyph unicode="7" horiz-adv-x="1361" d="M205 1190v244h1075v-220q-190 -178 -326.5 -384t-212.5 -404t-120 -426h-302q93 358 237 629.5t396 560.5h-747z" />
<glyph unicode="8" horiz-adv-x="1587" d="M215 414q0 121 60 215t174 143q-80 41 -125 115t-45 178q0 177 143 286t373 109q232 0 374 -109t142 -286q0 -94 -43.5 -172.5t-124.5 -120.5q111 -44 170 -138.5t59 -219.5q0 -203 -156 -323t-421 -120q-266 0 -423 119t-157 324zM471 416q0 -111 89 -172.5t235 -61.5 q148 0 236.5 61t88.5 173q0 110 -87.5 173.5t-237.5 63.5q-151 0 -237.5 -63.5t-86.5 -173.5zM526 1055q0 -95 69 -145t200 -50q132 0 201 50t69 145q0 89 -74.5 142.5t-195.5 53.5q-123 0 -196 -53.5t-73 -142.5z" />
<glyph unicode="9" horiz-adv-x="1589" d="M215 956q0 228 153.5 366t403.5 138q137 0 242 -43t168.5 -111.5t103.5 -165.5t55 -194t15 -209q0 -367 -159 -565.5t-458 -198.5q-103 0 -190 24.5t-149 67.5t-106 95t-73 114l219 107q89 -176 301 -176q178 0 266 110.5t99 302.5q-137 -131 -354 -131 q-242 0 -389.5 129.5t-147.5 339.5zM455 967q0 -115 85.5 -181.5t233.5 -66.5q144 0 231 68.5t87 179.5q0 114 -88.5 187t-229.5 73q-146 0 -232.5 -69.5t-86.5 -190.5z" />
<glyph unicode=":" horiz-adv-x="669" d="M176 0v311h318v-311h-318zM176 731v311h318v-311h-318z" />
<glyph unicode=";" horiz-adv-x="669" d="M53 -389l152 698h325l-249 -698h-228zM205 731v311h317v-311h-317z" />
<glyph unicode="&#x3c;" horiz-adv-x="1486" d="M244 350v275l973 376v-272l-674 -242l674 -241v-273z" />
<glyph unicode="=" horiz-adv-x="1486" d="M219 143v240h1047v-240h-1047zM219 594v237h1047v-237h-1047z" />
<glyph unicode="&#x3e;" horiz-adv-x="1486" d="M270 -27v273l674 241l-674 242v272l973 -376v-275z" />
<glyph unicode="?" horiz-adv-x="1398" d="M88 1049q42 182 205 296.5t424 114.5q66 0 130 -9t129 -27.5t119 -50.5t96.5 -75t66.5 -104.5t24 -134.5q0 -66 -21 -120.5t-64 -99.5t-97 -81.5t-131 -73.5q-45 -22 -71.5 -38.5t-55.5 -43t-43 -62.5t-15 -83h-258q0 153 56 237.5t196 153.5q130 64 167 93q63 50 63 118 q0 70 -73 115t-224 45q-300 0 -369 -236zM494 0v311h317v-311h-317z" />
<glyph unicode="@" horiz-adv-x="1878" d="M193 717q0 153 58 289.5t160.5 236.5t252 158.5t323.5 58.5q211 0 377 -74t260 -213t94 -321q0 -93 -23.5 -173t-62 -133t-84 -94t-94 -63.5t-87 -33.5t-67.5 -11q-85 0 -130.5 37.5t-59.5 85.5q-109 -125 -254 -125q-129 0 -215 85.5t-86 229.5q0 92 27.5 174.5 t78.5 146.5t131.5 102t178.5 38q67 0 129 -31.5t88 -93.5l26 97h191l-125 -476q-2 -6 -2 -16q0 -47 63 -47q33 0 66.5 15.5t64 45.5t49.5 82.5t19 118.5q0 148 -75 252t-198.5 152.5t-283.5 48.5q-261 0 -418 -152.5t-157 -400.5q0 -250 161 -397.5t424 -147.5 q143 0 239 32.5t179 110.5l154 -108q-222 -230 -561 -230q-178 0 -330 57t-257 156.5t-164.5 236.5t-59.5 294zM762 678q0 -67 37.5 -107.5t107.5 -40.5q92 0 152.5 82t60.5 179q0 60 -39 98.5t-106 38.5q-90 0 -151.5 -79.5t-61.5 -170.5z" />
<glyph unicode="A" horiz-adv-x="1748" d="M49 0l656 1434h342l653 -1434h-287l-135 301h-815l-133 -301h-281zM571 549h598l-299 674z" />
<glyph unicode="B" horiz-adv-x="1757" d="M287 0v1434h688q132 -2 213 -17q136 -27 221.5 -129.5t85.5 -245.5q0 -185 -123 -276q191 -114 191 -336q0 -172 -96.5 -281.5t-260.5 -136.5q-59 -12 -231 -12h-688zM547 236h545q97 0 155 47t58 145q0 94 -58.5 138t-156.5 44h-543v-374zM547 844h477q94 0 153.5 41.5 t59.5 132.5q0 101 -59 140.5t-164 39.5h-467v-354z" />
<glyph unicode="C" horiz-adv-x="1824" d="M193 719q0 212 101 382t276.5 264.5t390.5 94.5q227 0 413.5 -95.5t280.5 -283.5l-228 -131q-75 127 -188.5 191.5t-277.5 64.5q-222 0 -364 -137t-142 -350t141.5 -352.5t382.5 -139.5q327 0 463 285l233 -123q-105 -198 -280 -307t-416 -109q-227 0 -406 93.5 t-279.5 264t-100.5 388.5z" />
<glyph unicode="D" horiz-adv-x="1892" d="M287 0v1434h604q217 0 381 -64q198 -79 313 -243t115 -406q0 -249 -121.5 -420.5t-331.5 -245.5q-152 -55 -350 -55h-610zM551 254h344q177 0 309 63q236 119 236 404q0 292 -240 399q-132 60 -309 60h-340v-926z" />
<glyph unicode="E" horiz-adv-x="1697" d="M287 0v1434h1175v-252h-917v-330h805v-250h-805v-350h946v-252h-1204z" />
<glyph unicode="F" horiz-adv-x="1566" d="M287 0v1434h1132v-256h-870v-347h774v-253h-774v-578h-262z" />
<glyph unicode="G" horiz-adv-x="1906" d="M193 719q0 214 104.5 384t282.5 263.5t395 93.5q223 0 384.5 -77t276.5 -248l-221 -134q-149 205 -440 205q-226 0 -373 -135.5t-147 -351.5q0 -230 152 -362t403 -132q260 0 387 105v190h-523v250h771v-563q-49 -42 -83 -67.5t-95.5 -61t-121.5 -55.5t-149 -35t-190 -15 q-172 0 -320.5 51t-258 145t-172 235.5t-62.5 314.5z" />
<glyph unicode="H" horiz-adv-x="1923" d="M287 0v1434h270v-566h811v566h268v-1434h-268v612h-811v-612h-270z" />
<glyph unicode="I" horiz-adv-x="849" d="M287 0v1434h276v-1434h-276z" />
<glyph unicode="J" horiz-adv-x="1632" d="M92 492l254 79q23 -167 125.5 -254.5t271.5 -87.5q158 0 253.5 84t95.5 228v893h266v-899q0 -131 -48.5 -238.5t-132.5 -177.5t-196.5 -108t-241.5 -38q-168 0 -301 55.5t-224.5 173.5t-121.5 290z" />
<glyph unicode="K" horiz-adv-x="1718" d="M287 0v1434h260v-625l674 625h356l-682 -613l741 -821h-352l-573 655l-164 -147v-508h-260z" />
<glyph unicode="L" horiz-adv-x="1503" d="M287 0v1434h270v-1176h846v-258h-1116z" />
<glyph unicode="M" horiz-adv-x="2349" d="M287 0v1434h438l455 -1080l454 1080h428v-1434h-260v1198l-512 -1198h-227l-514 1206v-1206h-262z" />
<glyph unicode="N" horiz-adv-x="1953" d="M287 0v1434h366l754 -963v963h260v-1434h-223l-895 1141v-1141h-262z" />
<glyph unicode="O" d="M193 719q0 216 104.5 386.5t281 262.5t390.5 92q225 0 403 -94.5t277.5 -264t99.5 -382.5q0 -164 -60 -304t-164 -236.5t-248 -151t-308 -54.5q-217 0 -393.5 92.5t-279.5 264t-103 389.5zM457 719q0 -219 143.5 -355.5t368.5 -136.5q229 0 372.5 136.5t143.5 355.5 q0 211 -141.5 349t-374.5 138q-232 0 -372 -138t-140 -349z" />
<glyph unicode="P" horiz-adv-x="1738" d="M287 0v1434h760q179 0 294 -56q119 -57 188.5 -164.5t69.5 -259.5q0 -167 -82 -279.5t-221 -160.5q-92 -35 -249 -35h-500v-479h-260zM547 731h485q105 0 160 14q149 42 149 209q0 154 -137 205q-60 23 -170 23h-487v-451z" />
<glyph unicode="Q" d="M193 719q0 216 104.5 386.5t281 262.5t390.5 92q225 0 403 -94.5t277.5 -264t99.5 -382.5q0 -165 -65 -305t-179 -242l244 -248h-346l-111 115q-161 -66 -323 -66q-217 0 -393.5 92.5t-279.5 264t-103 389.5zM455 719q0 -219 144 -355.5t370 -136.5q62 0 129 13l-105 108 l221 123l117 -121q154 135 154 369q0 211 -141.5 349t-374.5 138q-232 0 -373 -138t-141 -349z" />
<glyph unicode="R" horiz-adv-x="1818" d="M287 0v1434h757q193 0 314 -58q116 -54 185 -161.5t69 -260.5q0 -337 -303 -450l360 -504h-328l-331 465h-463v-465h-260zM547 713h489q117 0 174 22q144 47 144 217q0 150 -129 203q-60 27 -191 27h-487v-469z" />
<glyph unicode="S" horiz-adv-x="1697" d="M199 240l200 168q94 -103 208.5 -146t277.5 -43q175 0 261.5 57t86.5 142t-73.5 130.5t-223.5 59.5l-170 17q-95 9 -170.5 26.5t-142.5 48.5t-111.5 75.5t-70 109.5t-25.5 147q0 192 156.5 310t447.5 118q402 0 614 -237l-192 -168q-144 159 -432 159q-92 0 -160 -15.5 t-103.5 -41.5t-52 -54t-16.5 -59q0 -88 82.5 -127.5t249.5 -54.5l159 -14q232 -21 364 -125t132 -297q0 -92 -37.5 -172.5t-111.5 -144t-196 -100t-280 -36.5q-449 0 -671 267z" />
<glyph unicode="T" horiz-adv-x="1550" d="M96 1180v254h1358v-254h-545v-1180h-268v1180h-545z" />
<glyph unicode="U" horiz-adv-x="1902" d="M274 635v799h269v-791q0 -139 47 -229q93 -185 362 -185t363 187q47 87 47 227v791h266v-799q0 -199 -57 -318q-76 -167 -233 -255.5t-386 -88.5q-222 0 -381 89t-239 257q-58 124 -58 316z" />
<glyph unicode="V" horiz-adv-x="1783" d="M72 1434h307l518 -1188l518 1188h297l-649 -1434h-338z" />
<glyph unicode="W" horiz-adv-x="2594" d="M106 1434h289l367 -1155l383 1155h311l379 -1155l367 1155h286l-483 -1434h-338l-369 1126l-372 -1126h-334z" />
<glyph unicode="X" horiz-adv-x="1640" d="M57 0l596 760l-530 674h332l374 -490l377 490h328l-541 -686l590 -748h-328l-438 563l-428 -563h-332z" />
<glyph unicode="Y" horiz-adv-x="1617" d="M25 1434h350l436 -519l442 519h340l-655 -756v-678h-266v678z" />
<glyph unicode="Z" horiz-adv-x="1742" d="M215 0v252l946 930h-897v252h1243v-256l-936 -922h947v-256h-1303z" />
<glyph unicode="[" horiz-adv-x="1116" d="M287 -162v1766h573v-256h-303v-1256h303v-254h-573z" />
<glyph unicode="\" horiz-adv-x="1490" d="M25 1532h299l1142 -1634h-299z" />
<glyph unicode="]" horiz-adv-x="1114" d="M256 92h305v1256h-305v256h571v-1766h-571v254z" />
<glyph unicode="^" horiz-adv-x="1486" d="M266 698l330 736h295l330 -736h-273l-205 498l-204 -498h-273z" />
<glyph unicode="_" horiz-adv-x="1189" d="M25 -213h1140v-264h-1140v264z" />
<glyph unicode="`" horiz-adv-x="528" d="M-12 1819h358l209 -242h-342z" />
<glyph unicode="a" horiz-adv-x="1748" d="M49 0l656 1434h342l653 -1434h-287l-135 301h-815l-133 -301h-281zM571 549h598l-299 674z" />
<glyph unicode="b" horiz-adv-x="1757" d="M287 0v1434h688q132 -2 213 -17q136 -27 221.5 -129.5t85.5 -245.5q0 -185 -123 -276q191 -114 191 -336q0 -172 -96.5 -281.5t-260.5 -136.5q-59 -12 -231 -12h-688zM547 236h545q97 0 155 47t58 145q0 94 -58.5 138t-156.5 44h-543v-374zM547 844h477q94 0 153.5 41.5 t59.5 132.5q0 101 -59 140.5t-164 39.5h-467v-354z" />
<glyph unicode="c" horiz-adv-x="1824" d="M193 719q0 212 101 382t276.5 264.5t390.5 94.5q227 0 413.5 -95.5t280.5 -283.5l-228 -131q-75 127 -188.5 191.5t-277.5 64.5q-222 0 -364 -137t-142 -350t141.5 -352.5t382.5 -139.5q327 0 463 285l233 -123q-105 -198 -280 -307t-416 -109q-227 0 -406 93.5 t-279.5 264t-100.5 388.5z" />
<glyph unicode="d" horiz-adv-x="1892" d="M287 0v1434h604q217 0 381 -64q198 -79 313 -243t115 -406q0 -249 -121.5 -420.5t-331.5 -245.5q-152 -55 -350 -55h-610zM551 254h344q177 0 309 63q236 119 236 404q0 292 -240 399q-132 60 -309 60h-340v-926z" />
<glyph unicode="e" horiz-adv-x="1697" d="M287 0v1434h1175v-252h-917v-330h805v-250h-805v-350h946v-252h-1204z" />
<glyph unicode="f" horiz-adv-x="1566" d="M287 0v1434h1132v-256h-870v-347h774v-253h-774v-578h-262z" />
<glyph unicode="g" horiz-adv-x="1906" d="M193 719q0 214 104.5 384t282.5 263.5t395 93.5q223 0 384.5 -77t276.5 -248l-221 -134q-149 205 -440 205q-226 0 -373 -135.5t-147 -351.5q0 -230 152 -362t403 -132q260 0 387 105v190h-523v250h771v-563q-49 -42 -83 -67.5t-95.5 -61t-121.5 -55.5t-149 -35t-190 -15 q-172 0 -320.5 51t-258 145t-172 235.5t-62.5 314.5z" />
<glyph unicode="h" horiz-adv-x="1923" d="M287 0v1434h270v-566h811v566h268v-1434h-268v612h-811v-612h-270z" />
<glyph unicode="i" horiz-adv-x="849" d="M287 0v1434h276v-1434h-276z" />
<glyph unicode="j" horiz-adv-x="1632" d="M92 492l254 79q23 -167 125.5 -254.5t271.5 -87.5q158 0 253.5 84t95.5 228v893h266v-899q0 -131 -48.5 -238.5t-132.5 -177.5t-196.5 -108t-241.5 -38q-168 0 -301 55.5t-224.5 173.5t-121.5 290z" />
<glyph unicode="k" horiz-adv-x="1718" d="M287 0v1434h260v-625l674 625h356l-682 -613l741 -821h-352l-573 655l-164 -147v-508h-260z" />
<glyph unicode="l" horiz-adv-x="1503" d="M287 0v1434h270v-1176h846v-258h-1116z" />
<glyph unicode="m" horiz-adv-x="2349" d="M287 0v1434h438l455 -1080l454 1080h428v-1434h-260v1198l-512 -1198h-227l-514 1206v-1206h-262z" />
<glyph unicode="n" horiz-adv-x="1953" d="M287 0v1434h366l754 -963v963h260v-1434h-223l-895 1141v-1141h-262z" />
<glyph unicode="o" d="M193 719q0 216 104.5 386.5t281 262.5t390.5 92q225 0 403 -94.5t277.5 -264t99.5 -382.5q0 -164 -60 -304t-164 -236.5t-248 -151t-308 -54.5q-217 0 -393.5 92.5t-279.5 264t-103 389.5zM457 719q0 -219 143.5 -355.5t368.5 -136.5q229 0 372.5 136.5t143.5 355.5 q0 211 -141.5 349t-374.5 138q-232 0 -372 -138t-140 -349z" />
<glyph unicode="p" horiz-adv-x="1738" d="M287 0v1434h760q179 0 294 -56q119 -57 188.5 -164.5t69.5 -259.5q0 -167 -82 -279.5t-221 -160.5q-92 -35 -249 -35h-500v-479h-260zM547 731h485q105 0 160 14q149 42 149 209q0 154 -137 205q-60 23 -170 23h-487v-451z" />
<glyph unicode="q" d="M193 719q0 216 104.5 386.5t281 262.5t390.5 92q225 0 403 -94.5t277.5 -264t99.5 -382.5q0 -165 -65 -305t-179 -242l244 -248h-346l-111 115q-161 -66 -323 -66q-217 0 -393.5 92.5t-279.5 264t-103 389.5zM455 719q0 -219 144 -355.5t370 -136.5q62 0 129 13l-105 108 l221 123l117 -121q154 135 154 369q0 211 -141.5 349t-374.5 138q-232 0 -373 -138t-141 -349z" />
<glyph unicode="r" horiz-adv-x="1818" d="M287 0v1434h757q193 0 314 -58q116 -54 185 -161.5t69 -260.5q0 -337 -303 -450l360 -504h-328l-331 465h-463v-465h-260zM547 713h489q117 0 174 22q144 47 144 217q0 150 -129 203q-60 27 -191 27h-487v-469z" />
<glyph unicode="s" horiz-adv-x="1691" d="M199 236l200 167q90 -102 206 -143t282 -41q171 0 255.5 54.5t84.5 144.5q0 84 -68.5 126.5t-220.5 61.5l-170 21q-96 12 -169.5 29.5t-140.5 48.5t-110.5 74t-68.5 107t-25 146q0 188 161.5 308t436.5 120q408 0 616 -233l-192 -168q-129 155 -434 155q-92 0 -159 -15.5 t-101.5 -41.5t-50 -54t-15.5 -59q0 -36 16 -63.5t42 -45.5t70 -32t88.5 -22.5t109.5 -16.5l159 -18q234 -28 361 -128t127 -292q0 -73 -22.5 -138.5t-71.5 -123.5t-120 -100t-174.5 -66.5t-228.5 -24.5q-455 0 -673 263z" />
<glyph unicode="t" horiz-adv-x="1550" d="M96 1180v254h1358v-254h-545v-1180h-268v1180h-545z" />
<glyph unicode="u" horiz-adv-x="1902" d="M274 635v799h269v-791q0 -139 47 -229q93 -185 362 -185t363 187q47 87 47 227v791h266v-799q0 -199 -57 -318q-76 -167 -233 -255.5t-386 -88.5q-222 0 -381 89t-239 257q-58 124 -58 316z" />
<glyph unicode="v" horiz-adv-x="1783" d="M72 1434h307l518 -1188l518 1188h297l-649 -1434h-338z" />
<glyph unicode="w" horiz-adv-x="2594" d="M106 1434h289l367 -1155l383 1155h311l379 -1155l367 1155h286l-483 -1434h-338l-369 1126l-372 -1126h-334z" />
<glyph unicode="x" horiz-adv-x="1640" d="M57 0l596 760l-530 674h332l374 -490l377 490h328l-541 -686l590 -748h-328l-438 563l-428 -563h-332z" />
<glyph unicode="y" horiz-adv-x="1617" d="M25 1434h350l436 -519l442 519h340l-655 -756v-678h-266v678z" />
<glyph unicode="z" horiz-adv-x="1742" d="M215 0v252l946 930h-897v252h1243v-256l-936 -922h947v-256h-1303z" />
<glyph unicode="{" horiz-adv-x="1116" d="M287 -162v1766h573v-256h-303v-1256h303v-254h-573z" />
<glyph unicode=", " horiz-adv-x="843" d="M287 -102v1634h270v-1634h-270z" />
<glyph unicode="}" horiz-adv-x="1114" d="M256 92h305v1256h-305v256h571v-1766h-571v254z" />
<glyph unicode="~" horiz-adv-x="1486" d="M176 358v242q73 41 152 63.5t143 22.5q83 0 163 -19t134 -42.5t127.5 -42.5t144.5 -19q72 0 132 20.5t139 65.5v-243q-72 -42 -151.5 -65.5t-143.5 -23.5q-83 0 -163.5 20t-134 43.5t-127.5 43.5t-145 20q-73 0 -133 -20.5t-137 -65.5z" />
<glyph unicode="&#xa1;" horiz-adv-x="817" d="M250 1124v310h317v-310h-317zM262 0l19 977h254l18 -977h-291z" />
<glyph unicode="&#xa2;" horiz-adv-x="1595" d="M215 598q0 229 146 390.5t374 189.5v139h176v-139q155 -18 279.5 -99.5t200.5 -226.5l-224 -119q-99 160 -256 193v-662q177 30 258 195l222 -121q-90 -151 -207 -231t-273 -95v-145h-176v149q-234 31 -377 188.5t-143 393.5zM469 598q0 -123 70 -212t196 -116v654 q-121 -25 -193.5 -113.5t-72.5 -212.5z" />
<glyph unicode="&#xa3;" horiz-adv-x="1515" d="M199 598v182h161q-73 142 -73 256q0 134 70.5 231t190 145t273.5 48q465 0 549 -387l-266 -76q-10 44 -28 79t-49.5 68.5t-84 51.5t-123.5 18q-108 0 -173.5 -49t-65.5 -149q0 -60 16.5 -113.5t48.5 -122.5h359v-182h-293q8 -50 8 -76q0 -93 -32.5 -161t-104.5 -128 q67 35 151 35q81 0 179.5 -30.5t168.5 -30.5q69 0 120 13.5t95 51.5l103 -206q-130 -109 -332 -109q-95 0 -170.5 19t-144.5 38t-146 19q-150 0 -266 -76l-111 217q53 33 88.5 59.5t71.5 63.5t54 82t18 98q0 62 -19 121h-243z" />
<glyph unicode="&#xa4;" horiz-adv-x="1486" d="M244 285l108 110q-90 115 -90 273q0 78 24.5 150.5t67.5 123.5l-110 113l110 108l113 -106q48 40 124 64t157 24q76 0 147.5 -23.5t114.5 -62.5l114 108l119 -116l-108 -107q86 -125 86 -272q0 -75 -24 -149t-64 -130l106 -108l-106 -105l-109 109q-111 -94 -279 -94 q-175 0 -284 92l-109 -109zM504 668q0 -100 64 -169t177 -69q112 0 174 71t62 171q0 96 -61.5 166.5t-171.5 70.5q-116 0 -180 -70.5t-64 -170.5z" />
<glyph unicode="&#xa5;" horiz-adv-x="1642" d="M74 1434h336l411 -533l420 533h326l-617 -748v-35h322v-162h-322v-106h322v-164h-322v-219h-268v219h-322v164h322v106h-322v162h322v33z" />
<glyph unicode="&#xa6;" horiz-adv-x="843" d="M287 -102v657h270v-657h-270zM287 872v660h270v-660h-270z" />
<glyph unicode="&#xa7;" horiz-adv-x="1441" d="M215 143l182 156q68 -83 150.5 -115t191.5 -32q117 0 177.5 34t60.5 90q0 52 -49.5 79t-141.5 40l-124 17q-94 13 -161 34t-124 58t-86 97.5t-29 143.5q0 113 90 197q-78 78 -78 211q0 154 124.5 252t346.5 98q141 0 266 -52t206 -148l-173 -162q-100 129 -309 129 q-115 0 -169 -33.5t-54 -73.5q0 -50 54 -74.5t165 -39.5l117 -17q86 -14 151.5 -38.5t118.5 -64t81 -100t28 -139.5q0 -114 -86 -194q78 -84 78 -213q0 -89 -40 -160t-108.5 -115.5t-155 -68t-184.5 -23.5q-336 0 -516 227zM506 754q0 -52 48.5 -74.5t168.5 -38.5l117 -16 q60 -10 104 -23q43 40 43 84q0 54 -41.5 77.5t-150.5 37.5l-123 16q-37 4 -113 21q-53 -30 -53 -84z" />
<glyph unicode="&#xa8;" horiz-adv-x="528" d="M-59 1567v264h262v-264h-262zM326 1567v264h264v-264h-264z" />
<glyph unicode="&#xa9;" d="M193 719q0 216 104.5 386.5t281 262.5t390.5 92q225 0 403 -94.5t277.5 -264t99.5 -382.5q0 -164 -60 -304t-164 -236.5t-248 -151t-308 -54.5q-217 0 -393.5 92.5t-279.5 264t-103 389.5zM403 719q0 -240 158.5 -389.5t407.5 -149.5q252 0 409.5 149t157.5 390 q0 233 -156 385.5t-411 152.5q-256 0 -411 -152.5t-155 -385.5zM584 717q0 162 109 268.5t274 106.5q119 0 215.5 -57.5t156.5 -172.5l-172 -90q-76 127 -200 127q-83 0 -137 -52t-54 -130t54 -129t147 -51q129 0 190 129l172 -97q-131 -223 -362 -223q-174 0 -283.5 103 t-109.5 268z" />
<glyph unicode="&#xaa;" horiz-adv-x="1003" d="M127 799l287 635h178l285 -635h-187l-43 104h-295l-43 -104h-182zM418 1065h162l-80 197z" />
<glyph unicode="&#xab;" horiz-adv-x="927" d="M72 537v311l327 289v-322l-174 -121l174 -121v-319zM489 537v311l328 289v-322l-174 -121l174 -121v-319z" />
<glyph unicode="&#xac;" horiz-adv-x="1486" d="M176 375v243h1135v-512h-256v269h-879z" />
<glyph unicode="&#xad;" horiz-adv-x="1148" d="M176 594v264h797v-264h-797z" />
<glyph unicode="&#xae;" horiz-adv-x="1325" d="M147 971q0 143 69.5 255.5t186.5 173t259 60.5q225 0 370.5 -137t145.5 -352q0 -218 -147 -355t-369 -137q-220 0 -367.5 137t-147.5 355zM313 971q0 -149 97.5 -240.5t251.5 -91.5q156 0 252 91t96 241q0 147 -95 239.5t-253 92.5q-159 0 -254 -92.5t-95 -239.5z M467 762v426h254q67 0 116.5 -41.5t49.5 -112.5q0 -86 -66 -127l90 -145h-155l-76 125h-80v-125h-133zM604 993h88q27 0 39 6q11 5 16 13t5 26q0 20 -19 29q-12 6 -41 6h-88v-80z" />
<glyph unicode="&#xaf;" horiz-adv-x="528" d="M-35 1593v211h600v-211h-600z" />
<glyph unicode="&#xb0;" horiz-adv-x="659" d="M47 1186q0 121 80.5 197.5t200.5 76.5q124 0 204 -77t80 -197q0 -123 -80.5 -200t-203.5 -77q-121 0 -201 77t-80 200zM215 1186q0 -47 31.5 -77t81.5 -30q51 0 83.5 30t32.5 77q0 46 -32 77t-84 31q-50 0 -81.5 -31t-31.5 -77z" />
<glyph unicode="&#xb1;" horiz-adv-x="1486" d="M176 0v246h1135v-246h-1135zM176 567v242h440v174h254v-174h441v-242h-441v-184h-254v184h-440z" />
<glyph unicode="&#xb4;" horiz-adv-x="528" d="M-12 1577l209 242h358l-225 -242h-342z" />
<glyph unicode="&#xb5;" horiz-adv-x="1486" d="M285 -479v1433h247v-473q0 -254 211 -254q112 0 161.5 62.5t49.5 199.5v465h248v-954h-219v78q-33 -47 -100.5 -71.5t-139.5 -24.5q-131 0 -211 59v-520h-247z" />
<glyph unicode="&#xb6;" horiz-adv-x="1505" d="M197 1069q0 219 134.5 354.5t348.5 135.5h639v-187h-115v-1524h-196v1524h-166v-1524h-193v750q-124 1 -226 56t-164 163.5t-62 251.5z" />
<glyph unicode="&#xb7;" horiz-adv-x="669" d="M176 582v311h318v-311h-318z" />
<glyph unicode="&#xb8;" horiz-adv-x="528" d="M102 -543l84 437h273l-111 -437h-246z" />
<glyph unicode="&#xba;" horiz-adv-x="997" d="M158 1120q0 145 99 236.5t243 91.5q149 0 244.5 -92.5t95.5 -235.5q0 -147 -96 -238t-244 -91q-147 0 -244.5 91t-97.5 238zM348 1120q0 -65 42.5 -106t109.5 -41t109 41t42 106q0 62 -42 103t-109 41q-68 0 -110 -41t-42 -103z" />
<glyph unicode="&#xbb;" horiz-adv-x="925" d="M111 254v321l172 121l-172 121v320l325 -283v-313zM528 254v321l172 121l-172 121v320l326 -283v-313z" />
<glyph unicode="&#xbc;" horiz-adv-x="1759" d="M158 -10l1145 1454h299l-1143 -1454h-301zM252 1163v187q54 9 88 31.5t43 52.5h199v-627h-213v383q-64 -27 -117 -27zM975 104v127l328 396h159v-373h68v-150h-68v-104h-164v104h-323zM1180 254h118v147z" />
<glyph unicode="&#xbd;" horiz-adv-x="1759" d="M158 -10l1145 1454h299l-1143 -1454h-301zM252 1163v187q54 9 88 31.5t43 52.5h199v-627h-213v383q-64 -27 -117 -27zM1067 0v139q19 32 54 64.5t63 53t80 54.5q63 43 83.5 65t20.5 48q0 27 -15 42t-42 15q-59 0 -66 -84l-162 29q41 219 248 219q100 0 160.5 -58 t60.5 -145q0 -76 -42.5 -125.5t-133.5 -111.5l-41 -29h219v-176h-487z" />
<glyph unicode="&#xbe;" horiz-adv-x="1759" d="M137 985l154 59q13 -52 41.5 -73t77.5 -21q40 0 64 15t24 41q0 49 -78 49h-60v143h48q69 0 69 47q0 18 -16.5 31.5t-52.5 13.5q-43 0 -64.5 -22.5t-24.5 -71.5l-159 31q13 109 77.5 166t165.5 57q107 0 170.5 -52.5t63.5 -140.5q0 -71 -37 -116q62 -50 62 -137 q0 -98 -69.5 -155.5t-191.5 -57.5q-98 0 -164 45t-100 149zM158 -10l1145 1454h299l-1143 -1454h-301zM975 104v127l328 396h159v-373h68v-150h-68v-104h-164v104h-323zM1180 254h118v147z" />
<glyph unicode="&#xbf;" horiz-adv-x="1378" d="M106 401q0 127 78 212.5t236 162.5q45 22 72 39t55 43.5t42 62.5t15 83h258q0 -154 -56 -238.5t-196 -153.5q-130 -64 -167 -94q-62 -49 -62 -117q0 -70 73 -114.5t224 -44.5q300 0 369 235l253 -65q-42 -182 -204.5 -297t-423.5 -115q-80 0 -156.5 12t-152 42 t-131.5 74.5t-91 115t-35 157.5zM573 1149v311h318v-311h-318z" />
<glyph unicode="&#xc0;" horiz-adv-x="1748" d="M49 0l656 1434h342l653 -1434h-287l-135 301h-815l-133 -301h-281zM553 1819h358l209 -242h-342zM571 549h598l-299 674z" />
<glyph unicode="&#xc1;" horiz-adv-x="1748" d="M49 0l656 1434h342l653 -1434h-287l-135 301h-815l-133 -301h-281zM571 549h598l-299 674zM639 1577l209 242h358l-225 -242h-342z" />
<glyph unicode="&#xc2;" horiz-adv-x="1748" d="M49 0l656 1434h342l653 -1434h-287l-135 301h-815l-133 -301h-281zM436 1577l246 242h393l246 -242h-317l-125 127l-125 -127h-318zM571 549h598l-299 674z" />
<glyph unicode="&#xc3;" horiz-adv-x="1748" d="M49 0l656 1434h342l653 -1434h-287l-135 301h-815l-133 -301h-281zM528 1563v51q0 112 46.5 168.5t134.5 56.5q59 0 129 -31l84 -39q32 -14 57 -14q29 0 45 20t16 56h181v-53q0 -110 -46.5 -167t-134.5 -57q-68 0 -127 29l-84 39q-36 16 -61 16q-59 0 -59 -75h-181z M571 549h598l-299 674z" />
<glyph unicode="&#xc4;" horiz-adv-x="1748" d="M49 0l656 1434h342l653 -1434h-287l-135 301h-815l-133 -301h-281zM555 1567v264h262v-264h-262zM571 549h598l-299 674zM940 1567v264h264v-264h-264z" />
<glyph unicode="&#xc5;" horiz-adv-x="1748" d="M49 0l656 1434h342l653 -1434h-287l-135 301h-815l-133 -301h-281zM571 549h598l-299 674zM674 1733q0 84 58 140t145 56q89 0 147.5 -55.5t58.5 -140.5t-57.5 -140t-146.5 -55t-147 55t-58 140zM803 1733q0 -33 20.5 -53.5t53.5 -20.5t54 20.5t21 53.5q0 31 -21 51 t-54 20q-32 0 -53 -20t-21 -51z" />
<glyph unicode="&#xc6;" horiz-adv-x="2426" d="M-6 0l854 1434h1343v-252h-845v-330h720v-250h-720v-350h874v-252h-1130v311h-609l-186 -311h-301zM631 559h459v760z" />
<glyph unicode="&#xc7;" horiz-adv-x="1824" d="M193 719q0 212 101 382t276.5 264.5t390.5 94.5q227 0 413.5 -95.5t280.5 -283.5l-228 -131q-75 127 -188.5 191.5t-277.5 64.5q-222 0 -364 -137t-142 -350t141.5 -352.5t382.5 -139.5q327 0 463 285l233 -123q-105 -198 -280 -307t-416 -109q-227 0 -406 93.5 t-279.5 264t-100.5 388.5zM729 -543l84 437h272l-110 -437h-246z" />
<glyph unicode="&#xc8;" horiz-adv-x="1697" d="M287 0v1434h1175v-252h-917v-330h805v-250h-805v-350h946v-252h-1204zM565 1819h359l209 -242h-342z" />
<glyph unicode="&#xc9;" horiz-adv-x="1697" d="M287 0v1434h1175v-252h-917v-330h805v-250h-805v-350h946v-252h-1204zM674 1577l209 242h358l-225 -242h-342z" />
<glyph unicode="&#xca;" horiz-adv-x="1697" d="M287 0v1434h1175v-252h-917v-330h805v-250h-805v-350h946v-252h-1204zM451 1577l245 242h394l245 -242h-317l-125 127l-125 -127h-317z" />
<glyph unicode="&#xcb;" horiz-adv-x="1697" d="M287 0v1434h1175v-252h-917v-330h805v-250h-805v-350h946v-252h-1204zM569 1567v264h262v-264h-262zM954 1567v264h265v-264h-265z" />
<glyph unicode="&#xcc;" horiz-adv-x="849" d="M94 1819h359l209 -242h-343zM287 0v1434h276v-1434h-276z" />
<glyph unicode="&#xcd;" horiz-adv-x="849" d="M195 1577l208 242h359l-225 -242h-342zM287 0v1434h276v-1434h-276z" />
<glyph unicode="&#xce;" horiz-adv-x="849" d="M-20 1577l245 242h393l246 -242h-317l-125 127l-125 -127h-317zM287 0v1434h276v-1434h-276z" />
<glyph unicode="&#xcf;" horiz-adv-x="849" d="M98 1567v264h262v-264h-262zM287 0v1434h276v-1434h-276zM483 1567v264h265v-264h-265z" />
<glyph unicode="&#xd0;" horiz-adv-x="1892" d="M197 596v252h90v586h604q217 0 381 -64q198 -79 313 -243t115 -406q0 -249 -121.5 -420.5t-331.5 -245.5q-152 -55 -350 -55h-610v596h-90zM545 254h350q155 0 260 39q133 50 209 156.5t76 271.5q0 161 -70 264.5t-194 151.5q-109 43 -285 43h-346v-332h379v-252h-379 v-342z" />
<glyph unicode="&#xd1;" horiz-adv-x="1953" d="M287 0v1434h366l754 -963v963h260v-1434h-223l-895 1141v-1141h-262zM647 1563v51q0 225 180 225q59 0 129 -31l84 -39q32 -14 58 -14q29 0 45 20t16 56h180v-53q0 -110 -46 -167t-134 -57q-68 0 -127 29l-84 39q-36 16 -61 16q-60 0 -60 -75h-180z" />
<glyph unicode="&#xd2;" d="M193 719q0 216 104.5 386.5t281 262.5t390.5 92q225 0 403 -94.5t277.5 -264t99.5 -382.5q0 -164 -60 -304t-164 -236.5t-248 -151t-308 -54.5q-217 0 -393.5 92.5t-279.5 264t-103 389.5zM457 719q0 -219 143.5 -355.5t368.5 -136.5q229 0 372.5 136.5t143.5 355.5 q0 211 -141.5 349t-374.5 138q-232 0 -372 -138t-140 -349zM666 1819h358l209 -242h-342z" />
<glyph unicode="&#xd3;" d="M193 719q0 216 104.5 386.5t281 262.5t390.5 92q225 0 403 -94.5t277.5 -264t99.5 -382.5q0 -164 -60 -304t-164 -236.5t-248 -151t-308 -54.5q-217 0 -393.5 92.5t-279.5 264t-103 389.5zM457 719q0 -219 143.5 -355.5t368.5 -136.5q229 0 372.5 136.5t143.5 355.5 q0 211 -141.5 349t-374.5 138q-232 0 -372 -138t-140 -349zM686 1577l209 242h358l-225 -242h-342z" />
<glyph unicode="&#xd4;" d="M193 719q0 216 104.5 386.5t281 262.5t390.5 92q225 0 403 -94.5t277.5 -264t99.5 -382.5q0 -164 -60 -304t-164 -236.5t-248 -151t-308 -54.5q-217 0 -393.5 92.5t-279.5 264t-103 389.5zM457 719q0 -219 143.5 -355.5t368.5 -136.5q229 0 372.5 136.5t143.5 355.5 q0 211 -141.5 349t-374.5 138q-232 0 -372 -138t-140 -349zM520 1577l246 242h393l246 -242h-318l-124 127l-125 -127h-318z" />
<glyph unicode="&#xd5;" d="M193 719q0 216 104.5 386.5t281 262.5t390.5 92q225 0 403 -94.5t277.5 -264t99.5 -382.5q0 -164 -60 -304t-164 -236.5t-248 -151t-308 -54.5q-217 0 -393.5 92.5t-279.5 264t-103 389.5zM457 719q0 -219 143.5 -355.5t368.5 -136.5q229 0 372.5 136.5t143.5 355.5 q0 211 -141.5 349t-374.5 138q-232 0 -372 -138t-140 -349zM612 1563v51q0 112 46.5 168.5t134.5 56.5q59 0 129 -31l84 -39q32 -14 57 -14q29 0 45 20t16 56h181v-53q0 -110 -46.5 -167t-134.5 -57q-68 0 -127 29l-84 39q-36 16 -61 16q-59 0 -59 -75h-181z" />
<glyph unicode="&#xd6;" d="M193 719q0 216 104.5 386.5t281 262.5t390.5 92q225 0 403 -94.5t277.5 -264t99.5 -382.5q0 -164 -60 -304t-164 -236.5t-248 -151t-308 -54.5q-217 0 -393.5 92.5t-279.5 264t-103 389.5zM457 719q0 -219 143.5 -355.5t368.5 -136.5q229 0 372.5 136.5t143.5 355.5 q0 211 -141.5 349t-374.5 138q-232 0 -372 -138t-140 -349zM639 1567v264h262v-264h-262zM1024 1567v264h264v-264h-264z" />
<glyph unicode="&#xd7;" horiz-adv-x="1486" d="M305 225l270 271l-270 268l170 168l268 -268l269 268l170 -168l-271 -268l271 -271l-170 -168l-269 269l-268 -269z" />
<glyph unicode="&#xd8;" d="M193 719q0 216 104.5 386.5t281 262.5t390.5 92q174 0 327 -61l70 100h305l-162 -231q114 -100 177 -241.5t63 -307.5q0 -164 -60 -304t-164 -236.5t-248 -151t-308 -54.5q-171 0 -322 60l-69 -101h-308l162 232q-113 101 -176 243t-63 312zM451 719q0 -205 131 -342 l565 809q-83 24 -178 24q-235 0 -376.5 -138t-141.5 -353zM797 246q87 -23 172 -23q231 0 376.5 137.5t145.5 358.5q0 200 -129 338z" />
<glyph unicode="&#xd9;" horiz-adv-x="1902" d="M274 635v799h269v-791q0 -139 47 -229q93 -185 362 -185t363 187q47 87 47 227v791h266v-799q0 -199 -57 -318q-76 -167 -233 -255.5t-386 -88.5q-222 0 -381 89t-239 257q-58 124 -58 316zM610 1819h359l209 -242h-342z" />
<glyph unicode="&#xda;" horiz-adv-x="1902" d="M274 635v799h269v-791q0 -139 47 -229q93 -185 362 -185t363 187q47 87 47 227v791h266v-799q0 -199 -57 -318q-76 -167 -233 -255.5t-386 -88.5q-222 0 -381 89t-239 257q-58 124 -58 316zM739 1577l209 242h359l-226 -242h-342z" />
<glyph unicode="&#xdb;" horiz-adv-x="1902" d="M274 635v799h269v-791q0 -139 47 -229q93 -185 362 -185t363 187q47 87 47 227v791h266v-799q0 -199 -57 -318q-76 -167 -233 -255.5t-386 -88.5q-222 0 -381 89t-239 257q-58 124 -58 316zM510 1577l246 242h393l246 -242h-318l-125 127l-125 -127h-317z" />
<glyph unicode="&#xdc;" horiz-adv-x="1902" d="M274 635v799h269v-791q0 -139 47 -229q93 -185 362 -185t363 187q47 87 47 227v791h266v-799q0 -199 -57 -318q-76 -167 -233 -255.5t-386 -88.5q-222 0 -381 89t-239 257q-58 124 -58 316zM629 1567v264h262v-264h-262zM1014 1567v264h264v-264h-264z" />
<glyph unicode="&#xdd;" horiz-adv-x="1617" d="M25 1434h350l436 -519l442 519h340l-655 -756v-678h-266v678zM588 1577l209 242h358l-225 -242h-342z" />
<glyph unicode="&#xde;" horiz-adv-x="1726" d="M287 0v1434h260v-152h500q176 0 294 -55q119 -58 188.5 -166.5t69.5 -259.5q0 -167 -81.5 -279.5t-221.5 -161.5q-94 -36 -249 -36h-500v-324h-260zM547 578h485q106 0 160 16q149 42 149 207q0 154 -137 205q-63 24 -170 24h-487v-452z" />
<glyph unicode="&#xdf;" horiz-adv-x="3330" d="M199 236l200 167q90 -102 206 -143t282 -41q171 0 255.5 54.5t84.5 144.5q0 84 -68.5 126.5t-220.5 61.5l-170 21q-96 12 -169.5 29.5t-140.5 48.5t-110.5 74t-68.5 107t-25 146q0 188 161.5 308t436.5 120q408 0 616 -233l-192 -168q-129 155 -434 155q-92 0 -159 -15.5 t-101.5 -41.5t-50 -54t-15.5 -59q0 -36 16 -63.5t42 -45.5t70 -32t88.5 -22.5t109.5 -16.5l159 -18q234 -28 361 -128t127 -292q0 -73 -22.5 -138.5t-71.5 -123.5t-120 -100t-174.5 -66.5t-228.5 -24.5q-455 0 -673 263zM1837 236l201 167q90 -102 205.5 -143t281.5 -41 q171 0 255.5 54.5t84.5 144.5q0 84 -68.5 126.5t-220.5 61.5l-170 21q-96 12 -169.5 29.5t-140.5 48.5t-110.5 74t-68.5 107t-25 146q0 188 161.5 308t436.5 120q409 0 617 -233l-193 -168q-129 155 -434 155q-92 0 -159 -15.5t-101.5 -41.5t-50 -54t-15.5 -59 q0 -36 16 -63.5t42 -45.5t70 -32t88.5 -22.5t109.5 -16.5l160 -18q234 -28 360.5 -128t126.5 -292q0 -92 -36.5 -171.5t-109 -143.5t-193.5 -101t-277 -37q-456 0 -674 263z" />
<glyph unicode="&#xe0;" horiz-adv-x="1748" d="M49 0l656 1434h342l653 -1434h-287l-135 301h-815l-133 -301h-281zM553 1819h358l209 -242h-342zM571 549h598l-299 674z" />
<glyph unicode="&#xe1;" horiz-adv-x="1748" d="M49 0l656 1434h342l653 -1434h-287l-135 301h-815l-133 -301h-281zM571 549h598l-299 674zM639 1577l209 242h358l-225 -242h-342z" />
<glyph unicode="&#xe2;" horiz-adv-x="1748" d="M49 0l656 1434h342l653 -1434h-287l-135 301h-815l-133 -301h-281zM436 1577l246 242h393l246 -242h-317l-125 127l-125 -127h-318zM571 549h598l-299 674z" />
<glyph unicode="&#xe3;" horiz-adv-x="1748" d="M49 0l656 1434h342l653 -1434h-287l-135 301h-815l-133 -301h-281zM528 1563v51q0 112 46.5 168.5t134.5 56.5q59 0 129 -31l84 -39q32 -14 57 -14q29 0 45 20t16 56h181v-53q0 -110 -46.5 -167t-134.5 -57q-68 0 -127 29l-84 39q-36 16 -61 16q-59 0 -59 -75h-181z M571 549h598l-299 674z" />
<glyph unicode="&#xe4;" horiz-adv-x="1748" d="M49 0l656 1434h342l653 -1434h-287l-135 301h-815l-133 -301h-281zM555 1567v264h262v-264h-262zM571 549h598l-299 674zM940 1567v264h264v-264h-264z" />
<glyph unicode="&#xe5;" horiz-adv-x="1748" d="M49 0l656 1434h342l653 -1434h-287l-135 301h-815l-133 -301h-281zM571 549h598l-299 674zM674 1733q0 84 58 140t145 56q89 0 147.5 -55.5t58.5 -140.5t-57.5 -140t-146.5 -55t-147 55t-58 140zM803 1733q0 -33 20.5 -53.5t53.5 -20.5t54 20.5t21 53.5q0 31 -21 51 t-54 20q-32 0 -53 -20t-21 -51z" />
<glyph unicode="&#xe6;" horiz-adv-x="2426" d="M-6 0l854 1434h1343v-252h-845v-330h720v-250h-720v-350h874v-252h-1130v311h-609l-186 -311h-301zM631 559h459v760z" />
<glyph unicode="&#xe7;" horiz-adv-x="1824" d="M193 719q0 212 101 382t276.5 264.5t390.5 94.5q227 0 413.5 -95.5t280.5 -283.5l-228 -131q-75 127 -188.5 191.5t-277.5 64.5q-222 0 -364 -137t-142 -350t141.5 -352.5t382.5 -139.5q327 0 463 285l233 -123q-105 -198 -280 -307t-416 -109q-227 0 -406 93.5 t-279.5 264t-100.5 388.5zM729 -543l84 437h272l-110 -437h-246z" />
<glyph unicode="&#xe8;" horiz-adv-x="1697" d="M287 0v1434h1175v-252h-917v-330h805v-250h-805v-350h946v-252h-1204zM565 1819h359l209 -242h-342z" />
<glyph unicode="&#xe9;" horiz-adv-x="1697" d="M287 0v1434h1175v-252h-917v-330h805v-250h-805v-350h946v-252h-1204zM674 1577l209 242h358l-225 -242h-342z" />
<glyph unicode="&#xea;" horiz-adv-x="1697" d="M287 0v1434h1175v-252h-917v-330h805v-250h-805v-350h946v-252h-1204zM451 1577l245 242h394l245 -242h-317l-125 127l-125 -127h-317z" />
<glyph unicode="&#xeb;" horiz-adv-x="1697" d="M287 0v1434h1175v-252h-917v-330h805v-250h-805v-350h946v-252h-1204zM569 1567v264h262v-264h-262zM954 1567v264h265v-264h-265z" />
<glyph unicode="&#xec;" horiz-adv-x="849" d="M94 1819h359l209 -242h-343zM287 0v1434h276v-1434h-276z" />
<glyph unicode="&#xed;" horiz-adv-x="849" d="M195 1577l208 242h359l-225 -242h-342zM287 0v1434h276v-1434h-276z" />
<glyph unicode="&#xee;" horiz-adv-x="849" d="M-20 1577l245 242h393l246 -242h-317l-125 127l-125 -127h-317zM287 0v1434h276v-1434h-276z" />
<glyph unicode="&#xef;" horiz-adv-x="849" d="M98 1567v264h262v-264h-262zM287 0v1434h276v-1434h-276zM483 1567v264h265v-264h-265z" />
<glyph unicode="&#xf0;" horiz-adv-x="1892" d="M197 596v252h90v586h604q217 0 381 -64q198 -79 313 -243t115 -406q0 -249 -121.5 -420.5t-331.5 -245.5q-152 -55 -350 -55h-610v596h-90zM545 254h350q155 0 260 39q133 50 209 156.5t76 271.5q0 161 -70 264.5t-194 151.5q-109 43 -285 43h-346v-332h379v-252h-379 v-342z" />
<glyph unicode="&#xf1;" horiz-adv-x="1953" d="M287 0v1434h366l754 -963v963h260v-1434h-223l-895 1141v-1141h-262zM647 1563v51q0 225 180 225q59 0 129 -31l84 -39q32 -14 58 -14q29 0 45 20t16 56h180v-53q0 -110 -46 -167t-134 -57q-68 0 -127 29l-84 39q-36 16 -61 16q-60 0 -60 -75h-180z" />
<glyph unicode="&#xf2;" d="M193 719q0 216 104.5 386.5t281 262.5t390.5 92q225 0 403 -94.5t277.5 -264t99.5 -382.5q0 -164 -60 -304t-164 -236.5t-248 -151t-308 -54.5q-217 0 -393.5 92.5t-279.5 264t-103 389.5zM457 719q0 -219 143.5 -355.5t368.5 -136.5q229 0 372.5 136.5t143.5 355.5 q0 211 -141.5 349t-374.5 138q-232 0 -372 -138t-140 -349zM666 1819h358l209 -242h-342z" />
<glyph unicode="&#xf3;" d="M193 719q0 216 104.5 386.5t281 262.5t390.5 92q225 0 403 -94.5t277.5 -264t99.5 -382.5q0 -164 -60 -304t-164 -236.5t-248 -151t-308 -54.5q-217 0 -393.5 92.5t-279.5 264t-103 389.5zM457 719q0 -219 143.5 -355.5t368.5 -136.5q229 0 372.5 136.5t143.5 355.5 q0 211 -141.5 349t-374.5 138q-232 0 -372 -138t-140 -349zM686 1577l209 242h358l-225 -242h-342z" />
<glyph unicode="&#xf4;" d="M193 719q0 216 104.5 386.5t281 262.5t390.5 92q225 0 403 -94.5t277.5 -264t99.5 -382.5q0 -164 -60 -304t-164 -236.5t-248 -151t-308 -54.5q-217 0 -393.5 92.5t-279.5 264t-103 389.5zM457 719q0 -219 143.5 -355.5t368.5 -136.5q229 0 372.5 136.5t143.5 355.5 q0 211 -141.5 349t-374.5 138q-232 0 -372 -138t-140 -349zM520 1577l246 242h393l246 -242h-318l-124 127l-125 -127h-318z" />
<glyph unicode="&#xf5;" d="M193 719q0 216 104.5 386.5t281 262.5t390.5 92q225 0 403 -94.5t277.5 -264t99.5 -382.5q0 -164 -60 -304t-164 -236.5t-248 -151t-308 -54.5q-217 0 -393.5 92.5t-279.5 264t-103 389.5zM457 719q0 -219 143.5 -355.5t368.5 -136.5q229 0 372.5 136.5t143.5 355.5 q0 211 -141.5 349t-374.5 138q-232 0 -372 -138t-140 -349zM612 1563v51q0 112 46.5 168.5t134.5 56.5q59 0 129 -31l84 -39q32 -14 57 -14q29 0 45 20t16 56h181v-53q0 -110 -46.5 -167t-134.5 -57q-68 0 -127 29l-84 39q-36 16 -61 16q-59 0 -59 -75h-181z" />
<glyph unicode="&#xf6;" d="M193 719q0 216 104.5 386.5t281 262.5t390.5 92q225 0 403 -94.5t277.5 -264t99.5 -382.5q0 -164 -60 -304t-164 -236.5t-248 -151t-308 -54.5q-217 0 -393.5 92.5t-279.5 264t-103 389.5zM457 719q0 -219 143.5 -355.5t368.5 -136.5q229 0 372.5 136.5t143.5 355.5 q0 211 -141.5 349t-374.5 138q-232 0 -372 -138t-140 -349zM639 1567v264h262v-264h-262zM1024 1567v264h264v-264h-264z" />
<glyph unicode="&#xf7;" horiz-adv-x="1486" d="M176 375v246h1135v-246h-1135zM573 96q0 68 49 116t121 48q71 0 119.5 -48t48.5 -116q0 -66 -48 -112.5t-118 -46.5q-73 0 -122.5 47t-49.5 112zM573 893q0 68 49 116t121 48q71 0 119.5 -48t48.5 -116t-48 -114t-118 -46q-73 0 -122.5 46.5t-49.5 113.5z" />
<glyph unicode="&#xf8;" d="M193 719q0 216 104.5 386.5t281 262.5t390.5 92q174 0 327 -61l70 100h305l-162 -231q114 -100 177 -241.5t63 -307.5q0 -164 -60 -304t-164 -236.5t-248 -151t-308 -54.5q-171 0 -322 60l-69 -101h-308l162 232q-113 101 -176 243t-63 312zM451 719q0 -205 131 -342 l565 809q-83 24 -178 24q-235 0 -376.5 -138t-141.5 -353zM797 246q87 -23 172 -23q231 0 376.5 137.5t145.5 358.5q0 200 -129 338z" />
<glyph unicode="&#xf9;" horiz-adv-x="1902" d="M274 635v799h269v-791q0 -139 47 -229q93 -185 362 -185t363 187q47 87 47 227v791h266v-799q0 -199 -57 -318q-76 -167 -233 -255.5t-386 -88.5q-222 0 -381 89t-239 257q-58 124 -58 316zM610 1819h359l209 -242h-342z" />
<glyph unicode="&#xfa;" horiz-adv-x="1902" d="M274 635v799h269v-791q0 -139 47 -229q93 -185 362 -185t363 187q47 87 47 227v791h266v-799q0 -199 -57 -318q-76 -167 -233 -255.5t-386 -88.5q-222 0 -381 89t-239 257q-58 124 -58 316zM739 1577l209 242h359l-226 -242h-342z" />
<glyph unicode="&#xfb;" horiz-adv-x="1902" d="M274 635v799h269v-791q0 -139 47 -229q93 -185 362 -185t363 187q47 87 47 227v791h266v-799q0 -199 -57 -318q-76 -167 -233 -255.5t-386 -88.5q-222 0 -381 89t-239 257q-58 124 -58 316zM510 1577l246 242h393l246 -242h-318l-125 127l-125 -127h-317z" />
<glyph unicode="&#xfc;" horiz-adv-x="1902" d="M274 635v799h269v-791q0 -139 47 -229q93 -185 362 -185t363 187q47 87 47 227v791h266v-799q0 -199 -57 -318q-76 -167 -233 -255.5t-386 -88.5q-222 0 -381 89t-239 257q-58 124 -58 316zM629 1567v264h262v-264h-262zM1014 1567v264h264v-264h-264z" />
<glyph unicode="&#xfd;" horiz-adv-x="1617" d="M25 1434h350l436 -519l442 519h340l-655 -756v-678h-266v678zM588 1577l209 242h358l-225 -242h-342z" />
<glyph unicode="&#xfe;" horiz-adv-x="1726" d="M287 0v1434h260v-152h500q176 0 294 -55q119 -58 188.5 -166.5t69.5 -259.5q0 -167 -81.5 -279.5t-221.5 -161.5q-94 -36 -249 -36h-500v-324h-260zM547 578h485q106 0 160 16q149 42 149 207q0 154 -137 205q-63 24 -170 24h-487v-452z" />
<glyph unicode="&#xff;" horiz-adv-x="1617" d="M25 1434h350l436 -519l442 519h340l-655 -756v-678h-266v678zM494 1567v264h262v-264h-262zM879 1567v264h264v-264h-264z" />
<glyph unicode="&#x152;" horiz-adv-x="2643" d="M193 719q0 169 62 309.5t169.5 234.5t254 145.5t314.5 51.5q151 0 289 -26h1124v-254h-866v-328h741v-252h-741v-346h897v-254h-1155q-144 -27 -289 -27q-168 0 -314.5 52t-254 146.5t-169.5 236t-62 311.5zM455 719q0 -160 71.5 -272.5t192.5 -166t280 -53.5 q165 0 283 41v897q-106 41 -283 41q-243 0 -393.5 -126.5t-150.5 -360.5z" />
<glyph unicode="&#x153;" horiz-adv-x="2643" d="M193 719q0 169 62 309.5t169.5 234.5t254 145.5t314.5 51.5q151 0 289 -26h1124v-254h-866v-328h741v-252h-741v-346h897v-254h-1155q-144 -27 -289 -27q-168 0 -314.5 52t-254 146.5t-169.5 236t-62 311.5zM455 719q0 -160 71.5 -272.5t192.5 -166t280 -53.5 q165 0 283 41v897q-106 41 -283 41q-243 0 -393.5 -126.5t-150.5 -360.5z" />
<glyph unicode="&#x178;" horiz-adv-x="1617" d="M25 1434h350l436 -519l442 519h340l-655 -756v-678h-266v678zM494 1567v264h262v-264h-262zM879 1567v264h264v-264h-264z" />
<glyph unicode="&#x2c6;" horiz-adv-x="528" d="M-178 1577l246 242h393l246 -242h-318l-125 127l-125 -127h-317z" />
<glyph unicode="&#x2dc;" horiz-adv-x="528" d="M-86 1563v51q0 225 180 225q59 0 129 -31l84 -39q31 -14 58 -14q29 0 45 20t16 56h180v-53q0 -110 -46 -167t-134 -57q-68 0 -127 29l-84 39q-36 16 -61 16q-60 0 -60 -75h-180z" />
<glyph unicode="&#x2000;" horiz-adv-x="964" />
<glyph unicode="&#x2001;" horiz-adv-x="1929" />
<glyph unicode="&#x2002;" horiz-adv-x="964" />
<glyph unicode="&#x2003;" horiz-adv-x="1929" />
<glyph unicode="&#x2004;" horiz-adv-x="643" />
<glyph unicode="&#x2005;" horiz-adv-x="482" />
<glyph unicode="&#x2006;" horiz-adv-x="321" />
<glyph unicode="&#x2007;" horiz-adv-x="321" />
<glyph unicode="&#x2008;" horiz-adv-x="241" />
<glyph unicode="&#x2009;" horiz-adv-x="385" />
<glyph unicode="&#x200a;" horiz-adv-x="107" />
<glyph unicode="&#x2010;" horiz-adv-x="1148" d="M176 594v264h797v-264h-797z" />
<glyph unicode="&#x2011;" horiz-adv-x="1148" d="M176 594v264h797v-264h-797z" />
<glyph unicode="&#x2012;" horiz-adv-x="1148" d="M176 594v264h797v-264h-797z" />
<glyph unicode="&#x2013;" horiz-adv-x="1341" d="M176 594v264h989v-264h-989z" />
<glyph unicode="&#x2014;" horiz-adv-x="1492" d="M176 594v264h1141v-264h-1141z" />
<glyph unicode="&#x2018;" horiz-adv-x="751" d="M117 1434h303l198 -525h-260z" />
<glyph unicode="&#x2019;" horiz-adv-x="751" d="M133 909l199 525h303l-242 -525h-260z" />
<glyph unicode="&#x201a;" horiz-adv-x="751" d="M109 -215l198 524h303l-241 -524h-260z" />
<glyph unicode="&#x201c;" horiz-adv-x="1220" d="M117 1434h303l198 -525h-260zM586 1434h303l198 -525h-260z" />
<glyph unicode="&#x201d;" horiz-adv-x="1220" d="M133 909l199 525h303l-242 -525h-260zM602 909l199 525h303l-242 -525h-260z" />
<glyph unicode="&#x201e;" horiz-adv-x="1220" d="M109 -215l198 524h303l-241 -524h-260zM578 -215l198 524h303l-241 -524h-260z" />
<glyph unicode="&#x2022;" horiz-adv-x="630" d="M63 725q0 106 72 178t180 72t180 -72t72 -178q0 -108 -72 -180t-180 -72t-180 72t-72 180z" />
<glyph unicode="&#x2026;" horiz-adv-x="1662" d="M176 0v311h318v-311h-318zM674 0v311h317v-311h-317zM1169 0v311h318v-311h-318z" />
<glyph unicode="&#x202f;" horiz-adv-x="385" />
<glyph unicode="&#x2039;" horiz-adv-x="509" d="M72 537v311l327 289v-322l-174 -121l174 -121v-319z" />
<glyph unicode="&#x203a;" horiz-adv-x="507" d="M111 254v321l172 121l-172 121v320l325 -283v-313z" />
<glyph unicode="&#x205f;" horiz-adv-x="482" />
<glyph unicode="&#x20ac;" horiz-adv-x="1818" d="M125 502v162h113q-2 18 -2 55q0 33 2 51h-113v162h137q65 239 257.5 383.5t449.5 144.5q222 0 397 -96t272 -289l-225 -123q-74 130 -180.5 195t-263.5 65q-154 0 -269 -75t-168 -205h502v-162h-538q-2 -16 -2 -51q0 -37 2 -55h538v-162h-499q54 -130 169.5 -204.5 t282.5 -74.5q309 0 430 258l223 -123q-107 -196 -267.5 -290.5t-385.5 -94.5q-272 0 -466 143t-259 386h-137z" />
<glyph unicode="&#x2122;" horiz-adv-x="1843" d="M150 1270v164h602v-164h-217v-471h-170v471h-215zM846 799v635h227l162 -383l162 383h221v-635h-166v356l-152 -356h-135l-155 356v-356h-164z" />
<glyph unicode="&#x25fc;" horiz-adv-x="1433" d="M0 0v1434h1434v-1434h-1434z" />
<glyph unicode="&#xfb01;" horiz-adv-x="2488" d="M287 0v1434h1132v-256h-870v-347h774v-253h-774v-578h-262zM1925 0v1434h277v-1434h-277z" />
<glyph unicode="&#xfb02;" horiz-adv-x="3141" d="M287 0v1434h1132v-256h-870v-347h774v-253h-774v-578h-262zM1925 0v1434h270v-1176h846v-258h-1116z" />
</font>
</defs>
</svg>
